<?xml version="1.0" standalone="no"?>
<!DOCTYPE svg PUBLIC "-//W3C//DTD SVG 20010904//EN"
 "http://www.w3.org/TR/2001/REC-SVG-20010904/DTD/svg10.dtd">
<svg version="1.0" xmlns="http://www.w3.org/2000/svg"
 width="500.000000pt" height="500.000000pt" viewBox="0 0 500.000000 500.000000"
 preserveAspectRatio="xMidYMid meet">
<metadata>
Created by potrace 1.11, written by Peter Selinger 2001-2013
</metadata>
<g transform="translate(0.000000,500.000000) scale(0.100000,-0.100000)"
fill="#000000" stroke="none">
<path d="M2385 4806 c-5 -6 -11 -18 -13 -26 -2 -8 -9 -28 -17 -45 -21 -49 -28
-70 -27 -77 1 -5 -2 -8 -8 -8 -5 0 -10 -11 -10 -25 0 -14 -5 -25 -11 -25 -5 0
-7 -4 -4 -10 3 -5 2 -10 -4 -10 -6 0 -8 -7 -5 -15 4 -8 1 -15 -6 -15 -6 0 -8
-4 -5 -10 3 -5 1 -10 -6 -10 -7 0 -10 -3 -7 -6 4 -3 0 -17 -7 -31 -8 -15 -12
-30 -9 -35 3 -4 0 -8 -6 -8 -6 0 -8 -4 -5 -10 3 -5 1 -10 -5 -10 -6 0 -9 -4
-5 -9 3 -5 1 -12 -5 -16 -6 -4 -8 -11 -5 -16 4 -5 1 -9 -4 -9 -6 0 -10 -3 -9
-7 1 -5 -4 -19 -11 -32 -9 -16 -9 -21 -1 -16 8 5 7 0 -2 -14 -7 -12 -16 -21
-21 -21 -4 0 -5 -5 -2 -10 4 -6 2 -17 -5 -24 -6 -8 -13 -24 -15 -37 -3 -12 -8
-25 -12 -28 -5 -3 -9 -13 -11 -21 -2 -8 -9 -28 -17 -45 -14 -32 -27 -65 -30
-77 -2 -5 -4 -11 -5 -15 -1 -5 -2 -11 -1 -15 0 -5 -3 -8 -9 -8 -5 0 -10 -7
-10 -15 0 -8 -13 -42 -29 -75 -15 -34 -23 -60 -17 -60 6 0 2 -7 -9 -16 -11 -8
-19 -18 -19 -22 2 -7 -4 -25 -29 -84 -8 -20 -13 -39 -9 -42 3 -3 0 -6 -6 -6
-6 0 -13 -13 -17 -30 -4 -16 -11 -30 -15 -30 -5 0 -7 -7 -4 -15 4 -8 1 -15 -7
-15 -7 0 -10 -3 -6 -6 7 -8 -13 -64 -23 -64 -5 0 -7 -9 -5 -20 2 -11 -1 -20
-6 -20 -6 0 -7 -5 -4 -10 3 -6 0 -12 -7 -15 -8 -3 -15 -17 -16 -32 -1 -15 -8
-30 -15 -35 -6 -4 -8 -8 -4 -8 18 0 -15 -40 -38 -46 -14 -3 -25 -10 -25 -16 0
-5 -4 -6 -10 -3 -5 3 -10 1 -10 -5 0 -7 -7 -10 -15 -6 -8 3 -15 1 -15 -4 0 -6
-9 -10 -20 -10 -11 0 -20 -5 -20 -11 0 -5 -4 -8 -9 -4 -5 3 -12 1 -16 -5 -4
-6 -11 -8 -16 -5 -5 4 -9 1 -9 -5 0 -6 -5 -8 -10 -5 -6 3 -13 0 -16 -9 -3 -8
-12 -12 -19 -10 -7 3 -16 0 -20 -5 -3 -6 -11 -9 -16 -6 -5 4 -9 1 -9 -5 0 -7
-7 -10 -15 -6 -8 3 -15 2 -15 -2 0 -10 -61 -35 -77 -33 -7 1 -13 -3 -13 -8 0
-5 -10 -13 -22 -16 -13 -4 -45 -17 -73 -30 -52 -24 -81 -35 -91 -34 -3 0 -12
-8 -20 -18 -11 -14 -13 -15 -14 -3 0 10 -3 11 -8 4 -6 -9 -32 -23 -52 -29 -3
0 -25 -11 -49 -23 -24 -12 -48 -19 -52 -16 -5 3 -9 1 -9 -5 0 -6 -11 -13 -25
-17 -14 -3 -25 -10 -25 -16 0 -5 -3 -7 -8 -5 -4 3 -25 -3 -46 -14 -22 -10 -46
-19 -53 -19 -7 0 -13 -5 -13 -10 0 -6 -3 -9 -7 -8 -14 4 -83 -26 -83 -35 0 -4
-4 -6 -9 -2 -5 3 -12 1 -16 -5 -3 -5 -15 -10 -26 -10 -10 0 -19 -4 -19 -10 0
-5 -6 -10 -14 -10 -21 0 -67 -26 -59 -34 4 -4 0 -4 -10 0 -9 3 -23 1 -31 -5
-7 -6 -16 -8 -19 -4 -4 3 -7 1 -7 -6 0 -7 -6 -11 -14 -8 -8 3 -17 -1 -20 -9
-3 -9 -10 -12 -16 -9 -5 3 -10 2 -10 -3 0 -5 -7 -9 -15 -10 -8 -1 -22 -3 -30
-4 -8 -1 -12 -5 -9 -10 3 -4 -4 -8 -16 -8 -12 0 -19 -4 -16 -9 4 -5 -3 -7 -14
-4 -12 3 -20 0 -20 -6 0 -7 -4 -10 -9 -6 -5 3 -12 1 -16 -5 -4 -6 -11 -8 -16
-5 -5 4 -9 -1 -9 -10 0 -9 -5 -13 -10 -10 -6 4 -17 1 -25 -5 -8 -7 -15 -9 -15
-5 0 4 -7 2 -15 -5 -8 -7 -15 -9 -15 -4 0 5 -5 1 -11 -10 -9 -15 -13 -16 -20
-5 -7 11 -9 10 -9 -4 0 -9 -3 -16 -7 -16 -20 3 -34 -2 -28 -11 3 -5 12 -7 20
-3 10 3 15 -2 15 -17 0 -11 -4 -18 -10 -15 -5 3 -18 1 -27 -4 -10 -6 -13 -11
-8 -12 6 -1 515 -2 1133 -3 890 -1 1126 2 1134 11 7 9 7 13 -1 13 -8 0 -9 5
-2 18 7 13 6 23 -1 30 -8 8 -8 12 -2 12 12 0 12 29 0 48 -4 6 -4 12 1 12 10 0
9 112 -1 128 -4 7 -3 12 2 12 10 0 9 30 -2 48 -4 6 -3 12 2 12 10 0 9 30 -2
48 -4 6 -3 12 2 12 10 0 9 30 -2 48 -4 6 -4 12 1 12 10 0 9 112 -1 128 -4 7
-3 12 2 12 10 0 9 30 -2 48 -4 6 -3 12 2 12 10 0 9 30 -2 48 -4 6 -3 12 2 12
10 0 9 30 -2 48 -4 6 -4 12 1 12 10 0 9 112 -1 128 -4 7 -3 12 2 12 10 0 9 30
-2 48 -4 6 -3 12 2 12 10 0 9 30 -2 48 -4 6 -3 12 2 12 10 0 9 30 -2 48 -4 6
-4 12 1 12 10 0 9 112 -1 128 -4 7 -3 12 2 12 10 0 9 30 -2 48 -4 6 -3 12 2
12 10 0 9 30 -2 48 -4 6 -3 12 2 12 10 0 9 30 -2 48 -4 6 -4 12 1 12 10 0 9
112 -1 128 -4 7 -3 12 2 12 10 0 9 30 -2 48 -4 6 -3 12 2 12 10 0 9 30 -2 48
-4 6 -3 12 2 12 10 0 9 30 -2 48 -4 6 -4 12 1 12 10 0 9 112 -1 128 -4 7 -3
12 2 12 10 0 8 42 -3 59 -3 6 -2 11 3 11 10 0 9 30 -2 48 -4 6 -4 12 1 12 4 0
8 11 8 25 0 14 -4 25 -9 25 -5 0 -3 7 4 15 9 11 9 15 1 15 -7 0 -10 4 -6 9 10
17 13 71 3 71 -5 0 -6 5 -3 11 10 14 14 59 6 63 -3 2 -10 -1 -16 -8z"/>
<path d="M2604 3789 c1 -904 3 -1031 16 -1039 11 -7 17 -4 22 8 4 9 7 13 7 8
1 -5 41 31 90 80 49 49 92 90 95 92 3 1 6 4 6 7 1 7 64 71 70 71 3 -1 6 3 7 8
1 5 13 16 27 26 15 9 23 20 19 23 -6 7 12 11 30 8 5 -1 6 3 3 8 -4 5 3 16 14
24 11 7 17 17 13 20 -3 4 1 7 10 7 8 0 19 9 22 21 4 11 9 18 12 15 7 -7 33 19
33 33 0 6 6 10 13 8 6 -1 11 4 10 11 -3 11 9 16 29 13 5 0 7 5 5 12 -1 6 4 11
10 10 7 -2 12 0 12 5 -3 19 2 33 11 27 11 -7 12 -5 15 45 1 19 -4 44 -11 55
-7 11 -13 25 -13 30 0 10 -19 57 -49 125 -9 19 -17 38 -18 43 -1 4 -3 10 -4
15 -1 4 -2 10 -1 15 0 4 -4 7 -9 7 -6 0 -10 9 -10 19 0 11 -5 23 -10 26 -6 4
-8 11 -5 16 4 5 1 9 -5 9 -7 0 -10 7 -6 15 3 8 1 15 -4 15 -6 0 -10 8 -10 18
0 10 -5 23 -12 30 -7 7 -9 12 -5 12 4 0 2 10 -5 23 -7 12 -13 24 -13 27 0 3
-11 27 -23 54 -13 28 -25 60 -28 73 -4 13 -11 20 -17 16 -6 -3 -7 -1 -3 5 4 6
0 25 -9 43 -9 17 -14 37 -11 45 3 8 2 13 -3 10 -9 -6 -24 30 -22 52 1 6 -3 12
-9 12 -5 0 -10 7 -10 15 0 8 -4 15 -10 15 -5 0 -7 6 -4 14 3 8 1 17 -5 20 -6
4 -7 14 -4 23 5 12 3 14 -7 8 -10 -6 -12 -4 -7 8 3 9 3 17 -1 19 -9 4 -52 109
-52 126 0 7 -5 10 -12 6 -7 -4 -8 -3 -4 4 4 7 4 18 -1 25 -4 6 -8 15 -9 20 -1
4 -3 9 -4 12 -3 6 -5 12 -15 43 -4 12 -12 22 -17 22 -5 0 -7 4 -4 9 3 5 -2 24
-11 42 -10 19 -19 43 -20 53 -2 11 -8 25 -13 31 -5 7 -7 15 -3 18 3 4 0 7 -8
7 -8 0 -15 11 -16 26 0 15 -5 29 -11 33 -5 3 -8 14 -6 24 1 9 -2 17 -7 17 -6
0 -8 4 -5 9 3 5 0 11 -8 14 -11 4 -13 -165 -12 -1024z"/>
<path d="M886 4228 c3 -5 10 -6 15 -3 13 9 11 12 -6 12 -8 0 -12 -4 -9 -9z"/>
<path d="M4105 4230 c-3 -6 1 -7 9 -4 18 7 21 14 7 14 -6 0 -13 -4 -16 -10z"/>
<path d="M917 4224 c-3 -4 -1 -16 4 -27 10 -18 9 -19 -16 -13 l-28 7 30 -25
c16 -14 63 -58 103 -98 40 -40 70 -67 65 -59 -5 10 -4 12 3 7 7 -4 12 -14 12
-22 0 -8 5 -12 10 -9 6 3 10 -1 10 -10 0 -10 5 -13 12 -9 8 5 9 2 5 -10 -4
-11 -3 -15 4 -11 13 9 48 -23 60 -52 5 -13 15 -23 24 -23 8 0 15 -7 15 -16 0
-8 3 -13 8 -11 4 3 13 -1 20 -9 7 -8 9 -14 5 -15 -4 0 2 -4 15 -9 12 -5 27
-21 32 -35 5 -14 14 -25 20 -25 15 0 50 -33 50 -47 0 -6 5 -15 12 -19 7 -5 8
-3 3 7 -5 8 1 5 13 -5 24 -21 29 -32 10 -20 -7 4 -8 3 -4 -5 4 -6 11 -9 16 -6
9 5 28 -14 29 -30 1 -5 5 -10 9 -10 4 0 42 -35 84 -77 77 -77 78 -77 93 -55 8
12 15 29 15 39 0 10 4 18 10 18 5 0 9 3 9 8 -1 4 0 9 1 12 1 3 3 12 5 20 2 8
16 47 33 85 44 105 45 109 43 123 -1 7 2 12 6 11 20 -3 27 2 14 10 -17 11 -24
41 -10 41 5 0 9 3 9 8 0 8 -78 42 -98 42 -6 0 -12 5 -12 11 0 5 -4 8 -9 4 -6
-3 -25 4 -43 15 -18 11 -41 20 -50 20 -10 0 -18 5 -18 10 0 6 -9 10 -19 10
-11 0 -23 5 -26 10 -4 6 -11 8 -16 5 -5 -4 -9 0 -9 7 0 11 -2 10 -9 0 -7 -11
-9 -11 -14 1 -3 8 -19 18 -36 22 -17 4 -31 11 -31 16 0 6 -4 7 -10 4 -5 -3
-21 1 -34 10 -14 9 -31 13 -37 9 -7 -4 -9 -3 -6 3 6 10 -12 19 -57 29 -11 3
-25 9 -31 14 -7 5 -15 7 -18 3 -4 -3 -7 -1 -7 6 0 7 -4 10 -9 6 -5 -3 -17 2
-25 11 -9 8 -16 13 -16 9 0 -3 -13 1 -30 10 -16 9 -30 12 -30 9 0 -4 -8 0 -18
9 -10 10 -22 14 -25 10 -4 -3 -7 -1 -7 6 0 7 -4 10 -9 6 -5 -3 -12 -1 -16 5
-4 6 -10 8 -15 5 -4 -3 -13 2 -20 10 -7 8 -17 12 -22 9 -6 -4 -13 -1 -17 5 -4
6 -10 8 -14 5z"/>
<path d="M4080 4225 c-1 -5 -2 -13 -2 -16 1 -3 -10 -4 -23 -1 -15 2 -25 0 -25
-7 0 -7 -4 -10 -9 -6 -5 3 -12 1 -16 -5 -4 -6 -10 -8 -15 -5 -5 3 -14 0 -22
-7 -14 -13 -33 -20 -55 -21 -7 0 -10 -4 -7 -9 3 -4 -2 -9 -10 -9 -24 -2 -28
-3 -74 -26 -23 -12 -39 -16 -35 -10 4 6 -7 1 -24 -11 -17 -12 -38 -22 -46 -22
-9 0 -19 -5 -22 -10 -4 -6 -11 -8 -16 -5 -5 4 -9 2 -9 -3 0 -6 -16 -13 -35
-16 -19 -4 -35 -11 -35 -17 0 -6 -4 -7 -10 -4 -5 3 -10 1 -10 -4 0 -6 -3 -10
-7 -9 -5 1 -24 -4 -43 -11 -19 -8 -42 -13 -50 -11 -8 1 -12 -2 -7 -6 4 -4 -7
-13 -25 -19 -74 -27 -173 -70 -179 -79 -4 -5 -12 -5 -18 -2 -6 4 -11 4 -12 -1
-6 -46 -2 -85 14 -117 11 -22 20 -45 22 -50 2 -10 17 -49 32 -86 3 -8 5 -18 5
-22 -1 -5 3 -8 9 -8 6 0 8 -7 5 -16 -3 -8 -2 -13 3 -10 5 3 12 -10 15 -29 4
-19 11 -35 16 -35 6 0 9 -3 9 -7 -5 -31 4 -33 31 -4 17 17 35 31 40 31 6 0 9
4 7 9 -1 5 2 9 7 9 5 0 16 12 26 27 10 15 30 35 44 44 14 10 24 19 22 22 -2 2
14 22 36 44 22 22 37 34 33 26 -6 -9 -4 -12 3 -7 7 4 12 14 12 22 0 8 5 12 10
9 6 -3 10 0 10 8 0 16 39 54 48 47 3 -3 17 10 29 29 13 19 23 30 23 26 0 -5
34 26 76 68 41 43 80 77 85 77 6 0 9 3 7 8 -2 4 12 23 31 42 19 19 31 28 27
20 -4 -8 2 -4 13 10 11 14 21 29 21 34 0 5 3 6 7 3 3 -4 16 6 27 22 12 16 27
26 36 23 8 -3 12 -1 8 3 -4 5 -3 14 3 22 9 10 7 13 -6 13 -14 0 -15 3 -5 15 6
8 10 20 7 27 -3 7 -6 9 -7 3z"/>
<path d="M4216 4059 c-26 -27 -45 -49 -41 -49 3 0 0 -6 -7 -14 -7 -8 -15 -12
-17 -10 -2 2 -48 -41 -102 -96 -55 -54 -99 -97 -99 -95 0 3 -9 -4 -20 -15 -11
-11 -20 -25 -20 -32 0 -6 -3 -9 -6 -6 -3 4 -30 -20 -60 -53 -30 -32 -54 -56
-54 -53 0 4 -15 -10 -33 -30 -19 -20 -37 -33 -41 -29 -4 5 -6 3 -4 -3 4 -14
-88 -105 -97 -96 -3 3 -3 -2 1 -12 5 -13 4 -17 -4 -12 -6 3 -16 -3 -22 -14 -6
-11 -18 -20 -28 -20 -15 0 -15 -2 -2 -10 13 -9 13 -10 0 -11 -8 -1 -19 -1 -23
0 -5 1 -11 -8 -14 -19 -3 -11 -13 -20 -22 -20 -14 0 -14 -2 -1 -10 12 -8 12
-10 1 -10 -7 0 -30 -17 -49 -37 -20 -21 -39 -37 -44 -36 -4 2 -7 -1 -5 -6 3
-12 -120 -131 -128 -123 -4 4 -5 2 -3 -3 2 -6 -15 -27 -37 -48 -21 -20 -35
-37 -31 -37 5 0 -4 -10 -20 -22 -16 -13 -40 -33 -54 -45 -14 -13 -28 -23 -33
-23 -4 0 -5 -4 -2 -10 3 -5 1 -10 -4 -10 -6 0 -36 -25 -66 -55 -30 -30 -60
-55 -66 -55 -7 0 -10 -2 -7 -6 8 -7 -79 -94 -94 -94 -6 0 -9 -3 -5 -6 9 -9
-21 -36 -33 -29 -5 3 -7 0 -5 -7 5 -13 -39 -61 -49 -55 -2 1 -8 -1 -12 -5 -4
-5 0 -8 9 -8 10 0 17 -8 17 -21 0 -11 -4 -18 -9 -14 -5 3 -13 0 -17 -6 -4 -8
-3 -9 4 -5 7 4 12 3 12 -1 0 -5 474 -8 1054 -8 837 0 1050 2 1037 12 -9 7 -24
13 -33 13 -11 0 -15 5 -12 14 3 7 11 13 19 12 8 0 14 4 14 9 0 6 -7 9 -15 9
-8 -1 -14 2 -14 7 0 5 -5 9 -10 9 -6 0 -29 9 -53 19 -23 11 -60 25 -82 31 -22
7 -44 16 -49 21 -6 5 -18 9 -29 9 -10 0 -16 4 -13 8 2 4 -4 9 -15 10 -43 4
-49 6 -49 14 0 4 -9 8 -19 8 -11 0 -23 5 -26 10 -4 6 -11 8 -16 5 -5 -4 -9 -1
-9 5 0 6 -4 9 -9 5 -6 -3 -25 3 -45 14 -25 14 -36 17 -40 8 -2 -7 -5 -4 -5 5
-1 10 -4 17 -8 16 -8 -3 -86 24 -128 43 -48 21 -81 32 -92 30 -7 -1 -13 3 -13
9 0 6 -4 8 -10 5 -5 -3 -10 -1 -10 5 0 7 -8 9 -20 5 -14 -4 -20 -2 -20 9 0 9
-6 13 -14 10 -8 -3 -17 0 -21 5 -3 6 -11 9 -16 6 -5 -4 -9 -1 -9 4 0 6 -3 10
-7 9 -5 -1 -24 4 -43 11 -19 8 -44 15 -55 18 -10 2 -22 8 -26 15 -4 6 -12 7
-18 4 -8 -5 -11 3 -9 24 1 17 6 34 10 36 5 3 6 10 3 15 -4 5 -1 9 4 9 6 0 11
5 11 11 0 5 11 35 25 65 14 30 25 59 25 64 0 6 5 10 11 10 5 0 7 5 4 10 -3 6
-2 10 4 10 5 0 8 9 6 20 -2 11 3 24 12 28 8 5 14 12 14 15 -2 12 2 24 23 69 9
21 17 41 17 45 1 5 7 16 14 27 8 10 11 25 8 34 -4 8 -2 13 3 10 5 -3 16 9 25
28 9 18 11 30 5 27 -6 -4 -6 0 1 9 7 8 9 19 5 23 -4 5 -2 5 4 2 7 -4 15 3 19
16 4 12 8 24 9 27 16 36 49 114 51 120 1 3 12 28 25 55 13 28 24 52 25 55 1 3
8 19 15 35 7 17 13 33 12 38 -1 4 3 7 8 7 6 0 10 8 10 18 0 10 7 27 15 38 8
12 11 25 7 29 -10 10 -9 29 2 37 6 4 8 9 5 12 -2 3 -26 -17 -53 -45z m14 -3
c0 -2 -8 -10 -17 -17 -16 -13 -17 -12 -4 4 13 16 21 21 21 13z m-160 -160 c0
-2 -8 -10 -17 -17 -16 -13 -17 -12 -4 4 13 16 21 21 21 13z"/>
<path d="M752 4045 c-1 -14 3 -25 8 -25 6 0 9 -3 8 -7 -2 -5 6 -28 16 -53 11
-25 19 -48 18 -52 -1 -5 2 -8 7 -8 9 0 27 -57 23 -73 -2 -5 2 -6 7 -3 11 7 24
-22 15 -35 -3 -5 -1 -9 4 -9 9 0 25 -37 23 -52 -1 -5 4 -8 10 -8 6 0 9 -7 5
-15 -3 -8 -1 -15 4 -15 4 0 11 -13 15 -30 4 -16 11 -30 15 -30 5 0 6 -7 3 -17
-5 -12 -3 -14 7 -8 10 6 12 3 8 -13 -4 -12 -3 -20 2 -17 8 5 23 -32 21 -52 -1
-7 3 -13 9 -13 5 0 10 -4 10 -9 0 -5 8 -26 17 -47 9 -22 16 -45 14 -53 -1 -7
2 -10 7 -7 11 7 22 -16 22 -44 0 -10 5 -20 11 -22 6 -2 12 -15 12 -30 1 -14 6
-24 11 -20 5 3 7 -2 3 -11 -4 -10 -2 -16 5 -14 11 2 14 -3 17 -38 2 -28 34
-34 73 -15 20 10 39 15 42 12 4 -3 6 0 6 7 0 6 6 11 13 10 12 -3 51 12 100 38
15 8 32 11 37 8 6 -3 10 -1 10 4 0 6 9 11 19 11 11 0 22 4 26 10 3 5 13 6 22
3 11 -4 14 -3 9 5 -4 7 -2 12 6 12 10 0 10 2 -1 9 -8 6 -12 20 -9 39 3 22 1
29 -9 25 -9 -3 -16 3 -20 16 -3 11 -12 21 -20 21 -8 0 -11 5 -8 10 3 6 -1 10
-10 10 -9 0 -13 5 -10 10 3 6 -1 10 -9 10 -8 0 -18 9 -21 20 -3 11 -11 20 -16
20 -6 0 -17 7 -25 15 -9 8 -12 15 -7 15 4 0 -4 8 -20 18 -15 10 -24 22 -20 25
3 4 -1 7 -11 7 -9 0 -15 4 -11 9 3 5 -3 12 -13 15 -10 4 -25 18 -32 31 -7 14
-17 25 -20 25 -12 0 -90 79 -90 90 0 5 -4 10 -10 10 -5 0 -31 22 -57 48 -26
26 -52 50 -58 52 -5 3 -9 8 -8 13 2 4 -1 6 -5 5 -11 -4 -62 49 -55 56 4 3 1 6
-6 6 -16 0 -42 26 -34 34 4 3 0 6 -9 6 -17 0 -80 65 -71 74 4 3 0 6 -8 6 -8 0
-16 -11 -17 -25z"/>
<path d="M1155 3920 c10 -11 20 -20 23 -20 3 0 -3 9 -13 20 -10 11 -20 20 -23
20 -3 0 3 -9 13 -20z"/>
<path d="M3579 3663 c-13 -16 -12 -17 4 -4 16 13 21 21 13 21 -2 0 -10 -8 -17
-17z"/>
<path d="M3169 3033 c-13 -16 -12 -17 4 -4 16 13 21 21 13 21 -2 0 -10 -8 -17
-17z"/>
<path d="M121 2421 c-8 -6 2 -13 32 -22 54 -15 54 -40 1 -33 -23 3 -33 1 -29
-6 3 -5 17 -10 31 -10 14 0 27 -6 30 -14 3 -8 13 -12 25 -9 11 3 19 0 19 -7 0
-7 6 -10 14 -7 8 3 16 2 18 -4 2 -5 13 -11 26 -14 12 -2 28 -7 35 -12 6 -4 17
-8 22 -10 26 -5 81 -29 87 -38 4 -5 8 -7 8 -2 0 4 14 0 30 -8 17 -9 35 -13 40
-10 5 3 13 -3 19 -12 6 -10 11 -14 11 -9 0 5 6 3 14 -3 8 -6 18 -11 22 -10 8
2 34 -7 84 -28 8 -3 17 -7 20 -8 3 -1 21 -8 40 -16 19 -7 38 -12 43 -11 4 1 7
-2 7 -8 0 -6 3 -9 8 -8 14 3 62 -14 62 -23 0 -5 3 -8 8 -8 4 1 9 0 12 -1 3 -1
12 -3 20 -5 32 -7 115 -40 121 -48 3 -5 9 -8 13 -8 3 1 7 1 9 0 1 0 11 -2 21
-4 10 -2 23 -10 27 -17 5 -7 9 -9 9 -4 0 6 5 5 11 -1 6 -6 18 -9 25 -6 8 3 14
0 14 -7 0 -6 5 -8 10 -5 5 3 10 1 10 -5 0 -7 7 -9 17 -6 10 4 14 4 10 0 -4 -4
-2 -13 4 -21 9 -10 8 -13 0 -13 -7 0 -9 -4 -6 -10 3 -5 1 -10 -5 -10 -6 0 -8
-4 -5 -10 3 -5 1 -10 -6 -10 -7 0 -9 -3 -6 -7 4 -3 0 -15 -10 -25 -13 -14 -13
-18 -2 -18 9 0 10 -3 3 -8 -16 -10 -44 -68 -37 -76 4 -3 1 -6 -5 -6 -7 0 -12
-9 -12 -20 0 -11 -5 -20 -12 -20 -6 0 -9 -3 -5 -6 3 -4 -5 -26 -18 -50 -14
-24 -22 -44 -20 -44 3 0 -6 -22 -19 -49 -14 -27 -22 -52 -18 -56 4 -3 0 -12
-8 -19 -26 -20 -41 -54 -27 -59 9 -4 9 -6 0 -6 -7 -1 -13 -8 -13 -16 0 -9 -7
-18 -15 -21 -8 -4 -12 -10 -10 -15 3 -5 -1 -22 -10 -39 -8 -16 -12 -30 -8 -30
5 0 3 -4 -3 -8 -7 -4 -24 -36 -39 -72 -15 -36 -38 -89 -51 -118 -13 -28 -24
-54 -24 -57 0 -3 -6 -18 -14 -34 -9 -16 -12 -31 -9 -35 4 -3 1 -6 -6 -6 -17 0
-10 -42 8 -48 8 -3 11 0 8 6 -4 5 3 12 14 15 14 4 18 10 13 18 -5 9 -2 10 9 6
11 -4 17 -1 17 8 0 7 5 17 12 21 7 5 8 3 3 -6 -5 -8 -4 -11 3 -6 6 4 8 14 5
22 -4 11 0 15 13 12 14 -2 18 2 16 15 -2 10 3 16 10 15 7 -2 12 3 10 10 -1 8
2 11 7 8 5 -4 16 1 23 9 7 9 19 21 26 28 7 7 49 48 94 92 45 44 85 79 90 78 4
-2 7 3 5 10 -1 6 5 11 13 9 8 -2 12 -1 8 3 -4 4 23 37 60 73 37 36 66 69 65
74 -2 4 0 7 5 5 9 -3 58 46 55 55 -2 4 5 4 14 1 10 -4 14 -2 9 5 -3 6 3 14 15
17 17 6 19 9 8 16 -11 7 -11 9 -1 9 8 0 37 25 65 55 28 30 56 55 63 55 7 0 16
5 20 12 5 7 3 8 -7 3 -12 -8 -12 -6 0 9 8 9 21 14 30 11 8 -3 12 -3 9 1 -9 9
9 44 23 44 5 0 24 14 42 32 18 17 23 25 11 17 -11 -8 -9 -5 3 6 13 11 61 55
105 98 45 42 85 77 90 77 5 0 7 3 5 8 -3 6 79 91 85 87 2 -1 11 7 21 17 9 10
14 18 10 18 -4 0 8 11 27 25 19 14 31 25 27 25 -3 0 4 10 16 23 12 13 25 22
29 20 4 -2 14 9 22 24 8 15 15 24 16 20 0 -4 6 -2 14 5 8 7 11 17 8 22 -3 5 3
6 14 2 10 -4 15 -4 11 0 -9 9 13 35 24 28 5 -3 6 3 2 13 -3 10 -3 15 1 11 10
-8 36 14 29 25 -2 4 2 7 10 7 8 0 20 6 26 13 8 10 7 14 -4 14 -8 0 -11 -5 -8
-10 3 -6 1 -7 -5 -3 -15 9 -15 43 0 52 7 5 8 3 3 -7 -7 -11 -5 -11 11 1 10 8
21 15 22 16 2 2 -16 1 -40 0 -23 -1 -51 1 -60 6 -10 5 -18 5 -18 0 0 -10 -92
-8 -109 2 -6 4 -11 3 -11 -2 0 -10 -92 -8 -109 2 -6 4 -11 3 -11 -2 0 -10 -92
-8 -109 2 -6 4 -11 3 -11 -2 0 -10 -92 -8 -109 2 -6 4 -11 3 -11 -2 0 -10 -92
-8 -109 2 -6 4 -11 3 -11 -2 0 -10 -92 -8 -109 2 -6 4 -11 3 -11 -2 0 -10 -92
-8 -109 2 -6 4 -11 3 -11 -2 0 -10 -92 -8 -109 2 -6 4 -11 3 -11 -2 0 -10 -92
-8 -109 2 -6 4 -11 3 -11 -2 0 -10 -92 -8 -109 2 -6 4 -11 3 -11 -2 0 -10 -92
-8 -109 2 -6 4 -11 3 -11 -2 0 -10 -92 -8 -109 2 -6 4 -11 3 -11 -2 0 -10 -92
-8 -109 2 -6 4 -11 3 -11 -2 0 -10 -92 -8 -109 2 -6 4 -11 3 -11 -2 0 -10 -92
-8 -109 2 -6 4 -11 3 -11 -2 0 -9 -92 -8 -108 2 -6 3 -12 0 -15 -6 -3 -10 -7
-10 -17 -1 -9 8 -19 9 -37 0 -18 -8 -26 -8 -31 1 -5 6 -13 8 -21 3z"/>
<path d="M2670 2420 c0 -7 -8 -9 -20 -5 -22 7 -53 -11 -45 -25 3 -5 5 -512 5
-1127 0 -687 4 -1112 9 -1103 6 8 7 18 5 22 -3 4 0 8 6 8 7 0 10 7 6 15 -3 8
-1 15 4 15 6 0 10 4 10 9 0 5 5 22 12 38 6 15 11 31 10 36 -1 4 3 7 9 7 6 0 9
7 5 15 -3 8 -1 15 4 15 6 0 10 9 10 20 0 11 4 20 8 20 8 0 10 6 14 49 1 11 5
18 9 15 8 -4 22 34 20 54 -1 6 3 12 8 12 6 0 13 16 17 35 3 19 11 35 17 35 6
0 7 3 4 7 -4 3 -2 12 4 20 6 7 8 13 3 13 -4 0 1 7 12 15 10 8 14 15 7 15 -8 0
-5 12 8 35 11 19 18 39 15 44 -3 5 1 11 9 15 8 3 15 14 15 25 0 10 7 31 14 47
8 15 13 31 10 36 -3 4 2 8 11 8 9 0 13 4 10 10 -3 5 0 20 7 32 7 13 13 25 13
28 3 19 41 106 49 112 6 4 7 8 3 8 -4 0 -2 10 5 23 6 12 13 27 14 32 6 30 10
41 18 47 8 5 10 15 15 61 1 5 6 5 12 2 6 -4 9 -1 8 6 -1 8 3 26 9 42 7 15 17
39 24 55 6 15 11 30 10 35 -1 4 2 7 7 7 6 0 8 10 6 21 -3 12 -1 19 2 15 6 -6
30 49 37 83 1 8 8 17 14 19 6 2 9 9 6 16 -3 8 1 20 8 27 13 15 20 34 21 57 0
6 4 12 9 12 4 0 8 9 8 19 0 11 5 23 10 26 6 4 8 10 5 15 -3 5 -1 11 5 15 6 4
8 11 5 16 -4 5 -1 9 4 9 6 0 11 7 11 15 0 14 12 19 33 16 4 0 7 4 7 10 0 5 5
7 10 4 6 -3 10 -1 10 5 0 6 4 9 8 6 5 -3 20 1 35 9 14 7 28 11 31 7 3 -3 6 0
6 6 0 6 6 9 14 6 8 -3 17 0 21 5 3 6 11 9 16 6 5 -4 9 -2 9 3 0 6 16 13 35 16
19 4 35 11 35 17 0 6 4 8 8 5 4 -2 21 1 37 9 34 15 65 27 80 31 6 1 21 6 35
12 14 5 28 10 33 11 4 0 21 8 37 16 17 9 30 12 30 8 0 -5 4 -3 8 2 8 11 69 36
90 38 6 0 12 5 12 10 0 6 3 8 6 4 8 -7 64 13 64 24 0 4 7 6 16 2 9 -3 19 0 24
7 4 6 19 13 34 13 14 1 26 5 26 10 0 4 9 7 20 7 11 0 20 4 20 9 0 8 66 26 83
22 5 -1 6 3 3 8 -7 11 22 24 35 15 5 -3 9 0 9 7 0 7 3 9 7 6 3 -4 11 -3 17 2
6 5 29 14 51 22 22 7 42 14 45 15 3 1 15 5 28 9 12 4 22 11 22 14 0 4 6 8 13
9 12 1 47 9 57 12 3 1 8 2 13 1 4 0 7 3 7 9 0 5 9 10 20 10 11 0 20 4 20 10 0
5 7 7 15 4 8 -4 15 -1 15 6 0 7 7 10 15 6 8 -3 15 -1 15 4 0 6 9 10 19 10 11
0 23 5 26 10 4 6 10 8 15 5 5 -3 11 -1 15 5 3 5 15 10 25 10 10 0 26 7 34 16
12 12 16 12 16 2 0 -9 2 -10 8 -1 4 6 16 13 27 15 11 1 26 9 33 16 8 7 18 10
23 7 5 -4 9 -1 9 5 0 6 4 9 8 6 4 -2 14 -1 22 4 9 6 2 8 -20 6 -47 -4 -64 3
-50 20 7 7 18 10 26 7 8 -3 14 0 14 7 0 6 4 9 9 5 5 -3 13 0 17 7 4 7 4 10 -1
6 -4 -4 -16 -3 -26 3 -11 5 -19 6 -19 1 0 -10 -92 -8 -109 2 -6 4 -11 3 -11
-2 0 -10 -92 -8 -109 2 -6 4 -11 3 -11 -2 0 -10 -92 -8 -109 2 -6 4 -11 3 -11
-2 0 -10 -92 -8 -109 2 -6 4 -11 3 -11 -2 0 -10 -92 -8 -109 2 -6 4 -11 3 -11
-2 0 -10 -92 -8 -109 2 -6 4 -11 3 -11 -2 0 -10 -92 -8 -109 2 -6 4 -11 3 -11
-2 0 -10 -92 -8 -109 2 -6 4 -11 3 -11 -2 0 -10 -92 -8 -109 2 -6 4 -11 3 -11
-2 0 -10 -92 -8 -109 2 -6 4 -11 3 -11 -2 0 -10 -92 -8 -109 2 -6 4 -11 3 -11
-2 0 -10 -92 -8 -109 2 -6 4 -11 3 -11 -2 0 -10 -92 -8 -109 2 -6 4 -11 3 -11
-2 0 -10 -92 -8 -109 2 -6 4 -11 3 -11 -2 0 -10 -92 -8 -109 2 -6 4 -11 3 -11
-2 0 -10 -92 -8 -109 2 -6 4 -11 3 -11 -2 0 -10 -92 -8 -109 2 -6 4 -11 3 -11
-2 0 -10 -92 -8 -109 2 -6 4 -11 2 -11 -4z"/>
<path d="M2256 2125 c-75 -74 -141 -135 -147 -135 -5 0 -8 -3 -6 -7 2 -5 -4
-16 -15 -25 -10 -10 -18 -15 -19 -10 0 4 -5 -4 -10 -17 -6 -15 -14 -21 -25
-17 -9 3 -12 2 -9 -5 8 -12 -26 -40 -39 -32 -5 4 -6 1 -3 -4 4 -6 -7 -26 -25
-44 -17 -19 -28 -27 -24 -19 4 8 -13 -6 -38 -31 -25 -26 -47 -45 -50 -42 -2 2
-7 -5 -11 -16 -3 -11 -15 -23 -27 -27 -11 -3 -17 -9 -12 -13 5 -3 10 -17 11
-31 2 -44 9 -68 22 -84 11 -13 11 -16 0 -16 -8 0 -7 -4 5 -13 9 -7 18 -22 19
-35 0 -12 5 -22 9 -22 4 0 8 -11 8 -25 0 -14 5 -25 11 -25 5 0 7 -4 4 -10 -3
-5 -1 -10 5 -10 6 0 10 -6 9 -12 -2 -18 12 -58 20 -58 4 0 7 -9 8 -19 1 -11
13 -43 27 -72 14 -29 22 -57 19 -62 -4 -6 -1 -7 7 -2 10 6 12 3 8 -13 -4 -13
0 -23 9 -26 8 -3 11 -10 8 -16 -3 -5 -2 -10 4 -10 6 0 8 -6 5 -14 -3 -8 0 -17
5 -21 6 -3 9 -11 6 -16 -4 -5 -1 -9 4 -9 6 0 11 -9 11 -19 0 -11 5 -23 10 -26
6 -4 8 -11 5 -16 -4 -5 -1 -9 5 -9 6 0 10 -6 8 -13 -1 -6 5 -26 15 -43 9 -17
13 -34 10 -38 -4 -3 -1 -6 6 -6 8 0 11 -7 7 -15 -3 -8 -1 -15 4 -15 6 0 10 -4
10 -9 0 -5 8 -26 17 -47 9 -22 17 -41 18 -44 4 -11 18 -47 32 -78 8 -18 11
-37 7 -44 -4 -6 -3 -8 3 -5 11 7 26 -27 24 -51 -1 -6 3 -12 10 -12 6 0 9 -7 5
-15 -3 -8 -1 -15 4 -15 5 0 12 -16 16 -35 3 -19 10 -35 16 -35 5 0 6 -4 3 -10
-3 -6 -1 -10 4 -10 6 0 10 -3 9 -7 -1 -5 5 -21 12 -38 7 -16 12 -36 11 -44 -1
-7 2 -10 8 -6 9 5 17 -29 12 -57 0 -5 6 -8 15 -8 11 0 14 -6 9 -20 -3 -11 -2
-20 3 -20 5 0 14 -18 21 -40 6 -22 16 -40 21 -40 13 0 13 1050 0 1084 -6 16
-6 26 0 26 6 0 6 9 1 23 -5 12 -5 32 0 45 5 13 5 22 -1 22 -6 0 -6 9 0 25 5
13 6 26 2 29 -9 5 -7 70 3 85 3 6 1 11 -5 11 -8 0 -8 6 0 20 8 14 8 20 0 20
-8 0 -8 6 0 20 8 14 8 20 0 20 -6 0 -8 5 -4 12 9 14 9 322 0 336 -4 7 -2 21 4
32 8 14 8 20 0 20 -8 0 -8 6 0 20 8 14 8 20 0 20 -8 0 -8 6 0 20 8 14 8 20 0
20 -8 0 -8 6 0 20 8 14 8 26 0 40 -6 11 -7 20 -3 20 9 0 9 57 0 67 -4 3 -2 12
4 20 8 9 8 13 1 13 -6 0 -72 -61 -146 -135z"/>
<path d="M3848 1788 c-10 -12 -18 -17 -18 -10 0 8 -12 5 -34 -7 -19 -11 -37
-17 -40 -14 -3 4 -6 2 -6 -3 0 -5 -10 -10 -22 -11 -11 -1 -24 -6 -27 -10 -6
-8 -25 -14 -51 -17 -8 0 -24 -9 -34 -18 -10 -10 -23 -15 -27 -12 -5 2 -18 -1
-31 -8 -13 -7 -25 -14 -27 -15 -2 -1 4 -10 14 -19 13 -13 14 -19 4 -25 -7 -4
-18 -5 -24 -3 -5 3 -1 -2 10 -11 11 -9 19 -21 18 -26 -2 -5 0 -8 5 -7 4 2 17
-5 30 -14 17 -11 20 -17 10 -21 -7 -3 -2 -6 11 -6 16 -1 21 -5 18 -16 -4 -8
-1 -17 5 -21 7 -4 8 -3 4 4 -4 7 -3 12 2 12 10 0 26 -29 24 -42 -1 -4 5 -5 12
-2 9 3 17 -3 21 -15 3 -12 10 -21 14 -21 4 0 28 -19 52 -42 24 -23 37 -39 29
-34 -8 4 -6 0 5 -8 45 -35 75 -66 75 -78 0 -6 2 -9 5 -6 3 3 30 -18 60 -46 30
-28 79 -73 108 -101 30 -27 53 -53 50 -57 -2 -5 3 -8 12 -8 9 0 13 -4 10 -10
-3 -5 -1 -10 5 -10 6 0 8 -5 4 -12 -4 -7 -3 -8 4 -4 13 8 53 -24 46 -36 -3 -4
0 -8 5 -8 13 0 51 -36 45 -43 -2 -2 1 -9 8 -15 10 -8 14 -2 15 24 2 19 -2 34
-7 34 -6 0 -10 6 -9 13 2 11 -20 66 -31 77 -3 3 -5 10 -6 15 0 6 -11 33 -24
60 -13 28 -24 52 -25 55 -7 29 -18 50 -25 50 -5 0 -7 7 -4 15 4 8 1 15 -6 15
-6 0 -8 5 -5 10 3 6 1 10 -4 10 -6 0 -11 11 -11 24 0 13 -7 29 -15 36 -8 7
-13 16 -10 20 3 5 1 11 -5 15 -5 3 -10 15 -10 25 0 10 -7 26 -16 34 -8 9 -13
16 -9 16 3 0 0 10 -7 23 -7 12 -12 25 -13 29 0 3 -3 10 -7 14 -5 4 -8 16 -8
26 0 10 -5 18 -11 18 -5 0 -7 5 -4 10 3 6 1 10 -6 10 -6 0 -9 8 -6 20 3 11 1
20 -4 20 -5 0 -9 7 -9 15 0 8 -5 15 -11 15 -5 0 -8 4 -4 10 3 5 -3 18 -13 28
-10 10 -16 24 -14 30 3 9 -34 82 -41 82 -1 0 -10 -10 -19 -22z"/>
<path d="M1499 1623 c-13 -16 -12 -17 4 -4 16 13 21 21 13 21 -2 0 -10 -8 -17
-17z"/>
<path d="M1574 1463 c-32 -32 -62 -58 -68 -58 -6 0 -11 -4 -11 -10 0 -19 -16
-35 -28 -29 -7 4 -9 4 -5 0 4 -5 -11 -25 -33 -47 -21 -21 -39 -43 -39 -49 0
-5 -3 -9 -7 -9 -19 3 -33 -2 -30 -10 1 -5 -37 -47 -84 -94 -48 -47 -84 -89
-80 -93 3 -4 1 -4 -6 0 -7 4 -50 -31 -107 -89 -53 -52 -101 -95 -107 -95 -5 0
-8 -3 -6 -7 3 -5 -5 -17 -16 -28 -11 -11 -17 -14 -13 -7 14 24 -1 12 -24 -20
-12 -18 -17 -27 -9 -20 16 15 39 16 39 1 0 -12 -26 -40 -35 -39 -4 1 -9 -1
-12 -3 -7 -8 20 -3 35 6 6 5 16 5 22 2 5 -3 15 3 21 14 7 10 18 17 25 14 6 -2
15 0 18 6 4 6 14 7 23 4 10 -4 14 -2 10 4 -4 7 7 13 28 17 19 4 35 11 35 16 0
6 3 10 8 9 4 -1 18 2 32 7 14 4 26 7 28 5 1 -1 10 5 18 14 9 8 20 13 25 10 5
-4 9 -1 9 6 0 7 3 9 6 6 4 -3 16 -1 28 5 11 7 26 13 31 14 6 1 35 13 65 26 50
23 87 38 100 43 3 1 18 7 33 13 16 7 33 10 38 6 5 -3 8 0 7 6 -2 6 17 18 42
27 25 8 48 20 51 25 3 5 10 8 15 7 5 -1 12 0 17 1 4 1 13 3 20 4 6 1 11 6 10
11 -1 6 9 11 21 11 28 2 80 35 69 43 -5 3 -9 17 -10 31 -1 31 -6 53 -13 60 -9
8 -70 164 -70 178 0 6 -5 12 -11 12 -6 0 -9 7 -5 15 3 10 -1 15 -12 16 -9 0
-12 3 -6 5 9 4 8 13 -3 34 -8 17 -16 30 -18 30 -2 0 -30 -26 -61 -57z"/>
<path d="M3363 1514 c7 -8 -13 -64 -24 -64 -4 0 -6 -7 -3 -15 4 -8 1 -15 -7
-15 -7 0 -9 -3 -6 -7 4 -3 1 -13 -6 -21 -10 -13 -9 -14 3 -7 12 7 12 5 -1 -11
-14 -17 -27 -42 -35 -69 -14 -48 -32 -84 -38 -78 -4 4 -4 0 0 -10 3 -9 2 -17
-3 -17 -5 0 -9 -19 -9 -43 -1 -38 3 -45 25 -54 73 -29 97 -38 104 -35 4 1 7
-2 7 -8 0 -5 9 -10 19 -10 11 0 27 -7 35 -16 9 -8 20 -12 26 -9 5 3 10 1 10
-5 0 -7 7 -10 15 -6 8 3 15 1 15 -4 0 -6 9 -10 21 -10 13 0 18 -4 13 -12 -4
-6 -3 -8 4 -4 6 3 27 -3 46 -14 20 -11 36 -17 36 -15 0 3 13 -1 29 -9 16 -9
31 -12 35 -9 3 4 6 1 6 -6 0 -7 5 -9 10 -6 6 3 10 2 10 -3 0 -10 38 -25 54
-23 5 1 17 -6 27 -15 10 -9 23 -13 28 -9 6 3 14 -1 17 -9 3 -9 10 -14 14 -11
4 3 22 -2 39 -11 17 -8 36 -12 42 -8 7 4 9 3 6 -3 -4 -6 3 -14 16 -18 12 -4
24 -8 27 -10 3 -1 14 -5 25 -9 11 -4 38 -16 59 -27 45 -22 52 -20 36 11 -11
21 -11 22 15 16 l27 -7 -29 26 c-15 14 -58 55 -94 90 -36 36 -69 62 -72 58 -4
-3 -7 1 -7 9 0 9 -8 22 -17 29 -17 13 -17 13 -3 -6 14 -19 14 -19 -2 -6 -10 7
-18 20 -18 27 0 13 -13 19 -35 14 -5 -1 -5 4 2 11 9 9 7 16 -10 29 -16 13 -24
15 -29 7 -5 -7 -8 -3 -8 11 0 13 -4 20 -10 17 -5 -3 -10 1 -10 10 0 9 -4 13
-10 10 -5 -3 -10 1 -10 10 0 9 -4 13 -10 10 -5 -3 -10 2 -10 11 0 10 -3 15 -6
11 -8 -8 -54 34 -54 50 0 8 -4 11 -10 8 -5 -3 -10 1 -10 10 0 9 -3 14 -7 12
-10 -5 -43 30 -36 37 4 3 1 6 -5 6 -17 0 -72 54 -72 70 0 7 -3 11 -6 8 -3 -4
-42 29 -85 73 -44 43 -85 79 -91 79 -6 0 -9 -3 -5 -6z"/>
<path d="M1199 1103 c-13 -16 -12 -17 4 -4 9 7 17 15 17 17 0 8 -8 3 -21 -13z"/>
<path d="M741 891 c-7 -5 -9 -11 -5 -14 5 -3 15 1 22 9 14 16 5 18 -17 5z"/>
</g>
</svg>
